<?xml version="1.0" standalone="no"?>
<!DOCTYPE svg PUBLIC "-//W3C//DTD SVG 20010904//EN"
 "http://www.w3.org/TR/2001/REC-SVG-20010904/DTD/svg10.dtd">
<svg version="1.0" xmlns="http://www.w3.org/2000/svg"
 width="16.000000pt" height="16.000000pt" viewBox="0 0 16.000000 16.000000"
 preserveAspectRatio="xMidYMid meet">
<metadata>
Created by potrace 1.11, written by Peter Selinger 2001-2013
</metadata>
<g transform="translate(0.000000,16.000000) scale(0.004000,-0.004000)"
fill="#000000" stroke="none">
<path d="M3485 3967 c-8 -4 -15 -5 -15 -2 0 3 -13 -1 -30 -10 -16 -8 -33 -16
-37 -16 -5 -1 -19 -6 -33 -11 -72 -29 -206 -78 -211 -78 -4 0 -24 -8 -45 -17
-22 -9 -41 -17 -44 -18 -5 -1 -123 -44 -185 -68 -16 -7 -32 -12 -35 -13 -3 0
-12 -3 -20 -7 -8 -3 -71 -27 -140 -52 -69 -26 -132 -49 -140 -52 -8 -4 -17 -7
-20 -8 -3 -1 -12 -5 -20 -8 -71 -29 -568 -210 -577 -210 -7 0 -13 -5 -13 -10
0 -6 -3 -8 -6 -4 -3 3 -25 -2 -47 -12 -23 -10 -69 -27 -102 -39 -33 -12 -85
-31 -115 -42 -30 -12 -62 -23 -70 -25 -14 -4 -133 -46 -136 -49 -1 0 2 -26 7
-56 5 -30 11 -80 14 -110 3 -30 8 -62 10 -70 5 -15 14 -78 20 -140 2 -19 6
-46 9 -59 3 -13 8 -47 11 -75 3 -28 8 -62 10 -76 4 -27 12 -85 19 -140 4 -34
42 -309 51 -380 3 -20 7 -46 10 -59 2 -13 7 -44 10 -70 3 -25 8 -66 12 -91 14
-91 9 -111 -43 -190 -27 -41 -52 -76 -56 -78 -5 -2 -8 -10 -8 -18 0 -8 -4 -14
-10 -14 -5 0 -10 -7 -10 -15 0 -8 -5 -15 -10 -15 -6 0 -9 -3 -8 -7 2 -7 -48
-89 -62 -103 -3 -3 -11 -17 -19 -32 -8 -16 -18 -28 -23 -28 -4 0 -8 -7 -8 -15
0 -8 -5 -15 -11 -15 -5 0 -7 -4 -4 -10 3 -5 1 -10 -4 -10 -6 0 -11 -7 -11 -15
0 -8 -4 -15 -10 -15 -5 0 -10 -7 -10 -15 0 -8 -5 -15 -11 -15 -5 0 -7 -4 -4
-10 3 -5 1 -10 -5 -10 -6 0 -8 -4 -5 -10 3 -5 2 -10 -3 -10 -12 0 -62 -78 -62
-96 0 -9 -4 -13 -9 -9 -5 3 -13 -5 -17 -17 -9 -29 -29 -49 -40 -40 -5 4 -2 -2
6 -12 9 -12 10 -17 3 -13 -8 5 -15 -1 -19 -18 -3 -14 -15 -30 -27 -36 -16 -9
-17 -13 -6 -20 11 -7 10 -9 -3 -9 -10 0 -18 -7 -18 -15 0 -8 -5 -15 -12 -15
-6 0 -8 -3 -4 -7 3 -4 -4 -13 -16 -21 -16 -9 -17 -12 -4 -7 16 5 17 3 6 -10
-7 -8 -17 -12 -24 -8 -6 4 -4 -2 4 -12 9 -11 10 -16 3 -11 -8 4 -13 2 -13 -4
0 -6 -4 -8 -10 -5 -5 3 -7 0 -4 -8 3 -8 0 -18 -7 -23 -8 -5 -10 -3 -4 6 5 9 4
11 -4 6 -9 -6 -9 -12 1 -24 7 -10 9 -14 4 -10 -11 9 -49 -38 -42 -51 3 -5 -2
-15 -12 -22 -16 -13 -16 -13 -2 6 14 19 14 19 -3 6 -13 -10 -15 -17 -6 -27 8
-10 6 -12 -9 -9 -16 3 -19 -1 -14 -17 4 -16 1 -20 -10 -16 -11 5 -14 0 -12
-18 1 -13 -2 -22 -7 -18 -5 3 -9 -2 -9 -11 0 -11 -5 -15 -14 -12 -10 4 -14 0
-11 -14 2 -10 -1 -19 -6 -19 -6 0 -8 -4 -4 -9 7 -12 -29 -33 -39 -23 -4 3 -2
-6 4 -22 10 -27 9 -28 -7 -15 -9 8 -14 9 -10 2 4 -6 2 -15 -4 -18 -5 -4 -8
-14 -5 -22 3 -8 2 -11 -3 -8 -5 3 -12 1 -16 -5 -3 -5 0 -10 7 -10 8 0 6 -5 -5
-11 -9 -5 -21 -8 -26 -5 -4 3 -6 -6 -3 -21 3 -18 1 -24 -7 -19 -7 5 -11 -2
-11 -19 0 -15 -4 -24 -10 -20 -5 3 -10 1 -10 -5 0 -6 -5 -8 -12 -4 -10 6 -10
4 0 -8 11 -13 10 -16 -4 -14 -11 1 -18 -7 -19 -23 -1 -13 -9 -29 -17 -35 -8
-6 -13 -18 -10 -26 5 -13 3 -13 -13 0 -17 14 -18 14 -6 -9 11 -19 11 -22 0
-16 -9 6 -11 3 -6 -8 4 -11 1 -17 -9 -17 -9 0 -12 5 -8 12 4 7 3 8 -4 4 -9 -5
-9 -13 -1 -28 8 -15 8 -19 0 -14 -6 4 -16 4 -22 0 -8 -4 -7 -9 2 -15 11 -7 10
-9 -3 -9 -9 0 -20 -5 -24 -12 -5 -7 -3 -8 6 -3 8 5 11 3 8 -6 -3 -8 -11 -13
-17 -12 -6 2 -11 -2 -11 -8 0 -5 -5 -7 -12 -3 -7 4 -8 3 -4 -5 4 -6 12 -9 17
-6 5 4 9 1 9 -4 0 -6 -6 -11 -14 -11 -7 0 -22 -12 -32 -27 -13 -20 -13 -25 -2
-16 8 7 18 10 21 6 4 -3 7 -2 7 4 0 6 8 9 19 6 10 -3 22 0 25 6 4 5 13 8 21 4
8 -3 15 0 15 6 0 6 8 11 18 11 10 0 22 3 26 7 4 5 12 9 17 9 5 1 11 3 14 4 3
1 8 3 13 4 4 1 24 10 46 19 21 9 42 14 47 11 5 -3 9 0 9 5 0 6 9 11 20 11 11
0 20 4 20 8 0 5 7 9 15 10 8 1 22 3 30 4 8 1 15 5 15 10 0 4 8 8 18 8 9 1 35
9 57 20 22 11 47 19 56 20 9 0 19 3 23 7 6 6 68 31 91 36 6 2 16 6 23 10 6 5
12 5 12 1 0 -3 6 -2 13 4 14 12 205 84 225 85 6 0 12 4 12 9 0 4 3 7 8 6 4 0
14 2 22 5 29 12 395 149 405 151 6 2 24 8 40 15 17 7 98 37 180 67 83 31 173
64 200 75 28 10 104 39 170 62 l120 44 -2 74 c-1 41 -4 173 -7 294 -3 121 -6
220 -6 220 -1 0 -3 70 -5 155 -1 85 -6 256 -10 380 -3 124 -8 304 -11 400 -3
96 -6 213 -7 260 l-3 85 41 55 c22 30 47 61 55 70 8 9 35 44 60 78 24 34 48
62 52 62 5 0 8 7 8 15 0 9 7 18 15 21 8 4 15 10 15 15 0 5 8 18 18 30 35 42
47 58 67 85 11 16 28 36 38 46 9 10 17 22 17 27 0 5 11 18 25 29 13 11 22 22
20 24 -3 3 10 21 29 41 19 21 32 37 29 37 -2 0 13 21 34 48 21 26 51 63 66 84
15 20 33 42 40 50 7 7 24 29 37 48 33 48 42 59 63 78 9 9 17 22 17 29 0 6 10
19 22 27 12 9 19 16 15 16 -4 0 1 8 11 19 41 44 72 86 72 97 0 7 15 25 34 42
19 17 32 33 28 37 -4 3 1 11 11 16 9 6 17 17 17 26 0 9 3 14 6 11 4 -5 54 37
54 45 0 6 -42 2 -55 -6z"/>
</g>
</svg>
