<?xml version="1.0" encoding="utf-8"?>
<!-- Generator: Adobe Illustrator 16.0.0, SVG Export Plug-In . SVG Version: 6.00 Build 0)  -->
<!DOCTYPE svg PUBLIC "-//W3C//DTD SVG 1.1//EN" "http://www.w3.org/Graphics/SVG/1.1/DTD/svg11.dtd">
<svg version="1.1" id="图层_1" xmlns="http://www.w3.org/2000/svg" xmlns:xlink="http://www.w3.org/1999/xlink" x="0px" y="0px"
	 width="889px" height="548px" viewBox="0 0 889 548" enable-background="new 0 0 889 548" xml:space="preserve">
<rect fill="#202B33" width="889" height="548"/>
<g>
	<circle fill="#FFFFFF" cx="44.703" cy="32.5" r="6.703"/>
	<circle fill="#FFFFFF" cx="71.516" cy="32.5" r="6.703"/>
	<circle fill="#FFFFFF" cx="98.328" cy="32.5" r="6.703"/>
</g>
<path fill="none" d="M-36,557"/>
<path fill="none" stroke="#4D4D4D" stroke-width="2" stroke-miterlimit="10" d="M789,567"/>
<path fill="none" stroke="#4D4D4D" stroke-width="2" stroke-miterlimit="10" d="M-38,567"/>
<path fill="none" stroke="#4D4D4D" stroke-width="2" stroke-miterlimit="10" d="M58,295.333"/>
<path fill="none" stroke="#4D4D4D" stroke-width="2" stroke-miterlimit="10" d="M-29,575"/>
<rect x="45" y="114" fill="#212327" width="271" height="391"/>
<rect x="72" y="202" fill="#474747" width="86" height="21"/>
<rect x="72" y="237" fill="#333333" width="217" height="21"/>
<rect x="72" y="272" fill="#333333" width="217" height="21"/>
<rect x="72" y="338" fill="#474747" width="129" height="21"/>
<rect x="72" y="374" fill="#333333" width="217" height="21"/>
<rect x="72" y="409" fill="#333333" width="217" height="21"/>
<rect x="364" y="114" fill="#212327" width="478" height="391"/>
<rect x="73" y="142" fill="#004991" width="85" height="29"/>
<image overflow="visible" width="275" height="120" xlink:href="C6DB5548.jpg"  transform="matrix(1 0 0 1 -7552 -7792)">
</image>
<rect x="406.5" y="151" fill="none" width="247.5" height="43"/>
<text transform="matrix(1 0 0 1 406.5 169.8203)"><tspan x="0" y="0" fill="#898989" font-family="'Roboto-Light'" font-size="22">Rule has   </tspan><tspan x="98.742" y="0" fill="#BF2D00" font-family="'Roboto-Light'" font-size="22">32</tspan><tspan x="123.127" y="0" fill="#898989" font-family="'Roboto-Light'" font-size="22">   violations</tspan></text>
<rect x="405" y="217" fill="none" width="23" height="20"/>
<text transform="matrix(1 0 0 1.81 405 232.3984)" fill="#999999" font-family="'Roboto-Medium'" font-size="18">&gt;</text>
<rect x="428" y="211" fill="#474747" width="82" height="23"/>
<rect x="528" y="211" fill="#333333" width="47" height="23"/>
<rect x="405" y="256" fill="none" width="23" height="20"/>
<text transform="matrix(1 0 0 1.81 405 271.3984)" fill="#999999" font-family="'Roboto-Medium'" font-size="18">&gt;</text>
<rect x="428" y="250" fill="#474747" width="82" height="23"/>
<rect x="528" y="250" fill="#333333" width="47" height="23"/>
<rect x="406" y="296" fill="none" width="23" height="20"/>
<text transform="matrix(1 0 0 1.81 406 311.3984)" fill="#999999" font-family="'Roboto-Medium'" font-size="18">&gt;</text>
<rect x="429" y="290" fill="#474747" width="82" height="23"/>
<rect x="529" y="290" fill="#333333" width="47" height="23"/>
<rect x="459" y="347" fill="#474747" width="51" height="23"/>
<rect x="528" y="347" fill="#333333" width="47" height="23"/>
<rect x="459" y="387" fill="#474747" width="51" height="23"/>
<rect x="528" y="387" fill="#333333" width="47" height="23"/>
<rect x="593" y="347" fill="#0A5100" width="72" height="23"/>
<rect x="593" y="387" fill="#0A5100" width="72" height="23"/>
<rect x="459" y="426" fill="#474747" width="51" height="23"/>
<rect x="528" y="426" fill="#333333" width="47" height="23"/>
<rect x="593" y="426" fill="#0A5100" width="72" height="23"/>
<rect x="763" y="211" fill="#474747" width="42" height="23"/>
<rect x="72" y="445" fill="#333333" width="217" height="21"/>
</svg>
