<?xml version="1.0" encoding="utf-8"?>
<!-- Generator: Adobe Illustrator 16.0.0, SVG Export Plug-In . SVG Version: 6.00 Build 0)  -->
<!DOCTYPE svg PUBLIC "-//W3C//DTD SVG 1.1//EN" "http://www.w3.org/Graphics/SVG/1.1/DTD/svg11.dtd">
<svg version="1.1" id="图层_1" xmlns="http://www.w3.org/2000/svg" xmlns:xlink="http://www.w3.org/1999/xlink" x="0px" y="0px"
	 width="889px" height="548px" viewBox="0 0 889 548" enable-background="new 0 0 889 548" xml:space="preserve">
<rect fill="#202B33" width="889" height="548"/>
<g>
	<circle fill="#FFFFFF" cx="44.703" cy="32.5" r="6.703"/>
	<circle fill="#FFFFFF" cx="71.516" cy="32.5" r="6.703"/>
	<circle fill="#FFFFFF" cx="98.328" cy="32.5" r="6.703"/>
</g>
<path fill="none" d="M-36,557"/>
<path fill="none" stroke="#4D4D4D" stroke-width="2" stroke-miterlimit="10" d="M789,567"/>
<path fill="none" stroke="#4D4D4D" stroke-width="2" stroke-miterlimit="10" d="M-38,567"/>
<path fill="none" stroke="#4D4D4D" stroke-width="2" stroke-miterlimit="10" d="M-29,575"/>
<image overflow="visible" width="275" height="120" xlink:href="9260C7E3.jpg"  transform="matrix(1 0 0 1 -7552 -7792)">
</image>
<rect x="753" y="108" fill="#0D4C00" width="72" height="30"/>
<rect x="651" y="108" fill="#3F3F3F" width="72" height="30"/>
<rect x="549" y="108" fill="#3F3F3F" width="72" height="30"/>
<rect x="149" y="195" fill="#686868" width="676" height="34"/>
<circle fill="none" stroke="#930000" stroke-width="6" stroke-miterlimit="10" cx="91.801" cy="212.395" r="13.527"/>
<circle fill="none" stroke="#999999" stroke-width="6" stroke-miterlimit="10" cx="91.801" cy="344.395" r="13.527"/>
<circle fill="none" stroke="#999999" stroke-width="6" stroke-miterlimit="10" cx="91.801" cy="413.395" r="13.527"/>
<rect x="149" y="327" fill="#686868" width="676" height="34"/>
<rect x="149" y="261" fill="#444444" width="574" height="34"/>
<rect x="753" y="263" fill="#828282" width="72" height="30"/>
<rect x="149" y="396" fill="#686868" width="676" height="34"/>
<rect x="375.75" y="481" fill="none" width="28.25" height="35"/>
<text transform="matrix(1 0 0 1.79 375.75 510.0859)" fill="#999999" font-family="'Roboto-Bold'" font-size="34">&lt;</text>
<circle fill="none" stroke="#007FDD" stroke-width="5" stroke-miterlimit="10" cx="446.801" cy="491.395" r="13.527"/>
<rect x="488" y="481" fill="none" width="28.25" height="35"/>
<text transform="matrix(-1 0 0 1.79 516.25 510.0859)" fill="#999999" font-family="'Roboto-Bold'" font-size="34">&lt;</text>
</svg>
