<?xml version="1.0" encoding="utf-8"?>
<!-- Generator: Adobe Illustrator 17.0.2, SVG Export Plug-In . SVG Version: 6.00 Build 0)  -->
<!DOCTYPE svg PUBLIC "-//W3C//DTD SVG 1.1//EN" "http://www.w3.org/Graphics/SVG/1.1/DTD/svg11.dtd">
<svg version="1.1" id="Layer_1" xmlns="http://www.w3.org/2000/svg" xmlns:xlink="http://www.w3.org/1999/xlink" x="0px" y="0px"
	 width="1280px" height="800px" viewBox="0 0 1280 800" enable-background="new 0 0 1280 800" xml:space="preserve">
<path fill="#FFFFFF" d="M94.998,297.358h20.35c2.276,0,4.114,0.571,5.516,1.706c1.4,1.139,2.449,2.584,3.152,4.333l53.174,132.74
	c1.224,2.977,2.34,6.216,3.347,9.716c1.007,3.503,1.992,7.135,2.955,10.897c0.786-3.762,1.641-7.395,2.56-10.897
	c0.919-3.499,1.99-6.739,3.216-9.716l52.914-132.74c0.611-1.487,1.66-2.866,3.15-4.135c1.487-1.268,3.325-1.904,5.516-1.904h20.481
	l-76.677,188.147h-22.977L94.998,297.358z"/>
<path fill="#FFFFFF" d="M318.926,310.751c0,2.277-0.459,4.398-1.378,6.367c-0.919,1.97-2.146,3.722-3.676,5.253
	c-1.532,1.532-3.306,2.736-5.319,3.61c-2.013,0.876-4.156,1.313-6.432,1.313c-2.278,0-4.398-0.437-6.368-1.313
	c-1.97-0.874-3.72-2.078-5.253-3.61c-1.532-1.531-2.735-3.282-3.609-5.253c-0.876-1.969-1.314-4.09-1.314-6.367
	c0-2.276,0.438-4.442,1.314-6.5c0.874-2.056,2.077-3.851,3.609-5.383c1.532-1.53,3.282-2.734,5.253-3.61
	c1.97-0.874,4.09-1.313,6.368-1.313c2.276,0,4.419,0.439,6.432,1.313c2.013,0.876,3.787,2.08,5.319,3.61
	c1.53,1.532,2.757,3.327,3.676,5.383C318.466,306.309,318.926,308.475,318.926,310.751z M313.675,352.503v133.002h-23.372V352.503
	H313.675z"/>
<path fill="#FFFFFF" d="M430.053,374.429c-1.051,1.925-2.671,2.888-4.859,2.888c-1.312,0-2.802-0.48-4.464-1.445
	c-1.663-0.962-3.697-2.034-6.105-3.216c-2.408-1.182-5.274-2.276-8.599-3.282c-3.327-1.005-7.266-1.51-11.815-1.51
	c-3.941,0-7.486,0.504-10.636,1.51c-3.152,1.007-5.842,2.386-8.076,4.135c-2.231,1.752-3.938,3.788-5.12,6.105
	c-1.182,2.321-1.772,4.838-1.772,7.55c0,3.414,0.985,6.259,2.953,8.534c1.97,2.277,4.573,4.246,7.813,5.909
	c3.238,1.664,6.913,3.131,11.029,4.398c4.114,1.27,8.336,2.626,12.67,4.07c4.332,1.445,8.554,3.043,12.67,4.793
	c4.114,1.751,7.789,3.938,11.029,6.565c3.238,2.625,5.842,5.842,7.811,9.65c1.97,3.808,2.955,8.382,2.955,13.72
	c0,6.128-1.096,11.796-3.282,17.003c-2.19,5.209-5.428,9.716-9.717,13.524c-4.289,3.807-9.542,6.806-15.756,8.993
	c-6.214,2.187-13.39,3.282-21.532,3.282c-9.279,0-17.681-1.51-25.208-4.529c-7.529-3.021-13.918-6.893-19.169-11.62l5.513-8.928
	c0.699-1.137,1.53-2.013,2.494-2.626c0.964-0.611,2.233-0.919,3.808-0.919s3.238,0.613,4.99,1.839
	c1.75,1.227,3.872,2.583,6.368,4.07c2.494,1.489,5.513,2.845,9.059,4.07c3.545,1.227,7.986,1.838,13.326,1.838
	c4.55,0,8.535-0.591,11.948-1.772c3.415-1.182,6.257-2.778,8.535-4.793c2.274-2.012,3.96-4.333,5.054-6.958
	c1.094-2.626,1.641-5.427,1.641-8.404c0-3.676-0.985-6.716-2.953-9.125c-1.97-2.406-4.575-4.464-7.813-6.171
	c-3.24-1.706-6.939-3.194-11.093-4.464c-4.159-1.268-8.405-2.603-12.736-4.005c-4.334-1.399-8.58-2.997-12.736-4.792
	c-4.159-1.793-7.858-4.047-11.095-6.761c-3.238-2.712-5.842-6.06-7.811-10.045c-1.97-3.981-2.955-8.817-2.955-14.508
	c0-5.075,1.051-9.956,3.152-14.639c2.101-4.681,5.163-8.797,9.191-12.342c4.024-3.544,8.971-6.367,14.835-8.468
	s12.561-3.152,20.09-3.152c8.751,0,16.609,1.379,23.567,4.136c6.96,2.758,12.976,6.544,18.053,11.357L430.053,374.429z"/>
<path fill="#FFFFFF" d="M480.083,352.503v84.817c0,10.066,2.319,17.857,6.958,23.371s11.64,8.271,21.006,8.271
	c6.828,0,13.262-1.619,19.301-4.857c6.039-3.238,11.597-7.747,16.675-13.524v-98.078h23.37v133.002h-13.916
	c-3.327,0-5.428-1.619-6.302-4.858l-1.84-14.31c-5.776,6.39-12.256,11.533-19.432,15.427c-7.178,3.894-15.405,5.842-24.682,5.842
	c-7.268,0-13.679-1.204-19.235-3.61c-5.56-2.406-10.221-5.798-13.984-10.175c-3.763-4.377-6.586-9.671-8.469-15.887
	c-1.883-6.213-2.823-13.085-2.823-20.613v-84.817H480.083z"/>
<path fill="#FFFFFF" d="M691.548,485.505h-10.373c-2.278,0-4.116-0.348-5.513-1.05c-1.402-0.7-2.321-2.187-2.759-4.464
	l-2.624-12.342c-3.503,3.151-6.917,5.974-10.243,8.469c-3.327,2.495-6.828,4.596-10.503,6.302
	c-3.676,1.707-7.595,2.999-11.751,3.873c-4.159,0.874-8.777,1.313-13.852,1.313c-5.165,0-10.001-0.727-14.508-2.172
	c-4.509-1.449-8.426-3.623-11.751-6.522c-3.327-2.899-5.973-6.567-7.943-11.002c-1.968-4.435-2.953-9.683-2.953-15.743
	c0-5.268,1.445-10.342,4.332-15.216c2.889-4.873,7.55-9.201,13.984-12.977c6.432-3.777,14.856-6.872,25.274-9.289
	c10.416-2.415,23.15-3.623,38.207-3.623v-10.438c0-10.393-2.212-18.252-6.631-23.582c-4.421-5.33-10.963-7.995-19.628-7.995
	c-5.691,0-10.484,0.722-14.378,2.167c-3.896,1.445-7.266,3.064-10.11,4.858c-2.844,1.795-5.295,3.413-7.351,4.857
	c-2.058,1.445-4.094,2.167-6.105,2.167c-1.577,0-2.955-0.415-4.137-1.248c-1.182-0.83-2.122-1.858-2.823-3.085l-4.201-7.485
	c7.353-7.089,15.273-12.385,23.765-15.886c8.488-3.5,17.899-5.252,28.229-5.252c7.437,0,14.049,1.227,19.825,3.676
	c5.776,2.452,10.636,5.866,14.574,10.241c3.938,4.378,6.913,9.673,8.928,15.886c2.011,6.216,3.02,13.044,3.02,20.483V485.505z
	 M630.89,471.194c4.112,0,7.877-0.415,11.29-1.247c3.415-0.831,6.631-2.013,9.651-3.545c3.02-1.53,5.909-3.391,8.665-5.58
	c2.759-2.187,5.449-4.682,8.076-7.485v-27.441c-10.766,0-19.914,0.684-27.441,2.048c-7.529,1.366-13.655,3.149-18.382,5.348
	c-4.727,2.201-8.163,4.799-10.307,7.791c-2.146,2.995-3.216,6.339-3.216,10.036c0,3.523,0.568,6.561,1.707,9.113
	c1.137,2.554,2.669,4.644,4.594,6.273c1.925,1.628,4.201,2.819,6.828,3.566C624.981,470.821,627.824,471.194,630.89,471.194z"/>
<path fill="#FFFFFF" d="M945.514,405.203c0.732-6.692,0.739-13.479,0.02-20.174l-0.432-4.024l22.842-16.001
	c-1.395-5.359-3.17-10.65-5.295-15.781c-2.125-5.13-4.611-10.127-7.415-14.904l-27.466,4.837l-2.54-3.151
	c-4.226-5.241-9.03-10.036-14.279-14.25l-3.163-2.539l4.831-27.434c-9.621-5.649-19.917-9.913-30.712-12.722l-15.982,22.816
	l-4.033-0.441c-6.692-0.732-13.48-0.739-20.174-0.02l-4.024,0.431l-16.001-22.841c-5.361,1.396-10.652,3.171-15.781,5.295
	c-5.129,2.125-10.125,4.611-14.903,7.415l4.837,27.466l-3.15,2.54c-5.241,4.225-10.035,9.029-14.25,14.279l-2.54,3.163
	l-27.435-4.832c-5.647,9.62-9.912,19.916-12.721,30.712l22.815,15.983l-0.441,4.032c-0.732,6.692-0.739,13.479-0.02,20.174
	l0.432,4.024l-22.842,16.001c1.395,5.36,3.17,10.651,5.296,15.781c2.125,5.13,4.611,10.127,7.414,14.903l27.466-4.837l2.54,3.151
	c4.226,5.242,9.03,10.036,14.28,14.251l3.163,2.539l-4.831,27.434c9.621,5.649,19.917,9.914,30.711,12.721l15.983-22.816
	l4.032,0.441c6.69,0.732,13.477,0.738,20.173,0.02l4.024-0.431l16.002,22.842c5.359-1.395,10.649-3.17,15.781-5.296
	c5.132-2.126,10.128-4.612,14.904-7.414l-4.837-27.467l3.151-2.54c5.242-4.227,10.037-9.031,14.25-14.278l2.539-3.163l27.435,4.831
	c5.648-9.618,9.912-19.914,12.721-30.711l-22.815-15.983L945.514,405.203z M851.818,451.222c-30.93,0-56.092-25.163-56.092-56.092
	c0-30.93,25.163-56.093,56.092-56.093c30.929,0,56.092,25.163,56.092,56.093C907.91,426.06,882.747,451.222,851.818,451.222z"/>
<path fill="#FFFFFF" d="M727.134,446.777c-2.382-5.75-4.387-11.72-5.955-17.741l-2.622-10.086L734,408.135v-26.009l-15.387-10.776
	l2.625-10.083C724.126,350.165,728,339.49,734,329.473V292h-23v194h23v-25.083C731,456.344,729.134,451.607,727.134,446.777z"/>
<path fill="#FFFFFF" d="M1085.464,388.871c-2.363-8.489-5.733-15.601-10.11-21.335c-4.376-5.731-9.672-10.064-15.886-12.998
	c-6.216-2.931-13.129-4.398-20.746-4.398c-9.542,0-17.966,2.101-25.274,6.302c-7.308,4.201-13.809,9.761-19.498,16.675
	l-1.968-15.507c-0.876-3.238-2.977-4.609-6.302-4.609h-5.812c0.961,2,1.831,5.55,2.591,8.475l2.743,9.96L972,380.643v28.974
	l13.147,9.293l-2.564,10.084c-2.51,9.651-6.583,18.979-10.583,27.835V561h23v-89.281c5,4.989,9.672,8.842,15.495,11.553
	c5.819,2.712,12.876,4.07,21.106,4.07c8.928,0,16.973-1.773,24.109-5.317c7.133-3.545,13.157-8.404,18.061-14.574
	c4.9-6.171,8.67-13.478,11.296-21.927c2.626-8.447,3.941-17.571,3.941-27.375C1089.008,407.122,1087.828,397.362,1085.464,388.871z
	 M1054.874,455.964c-6.654,8.842-16.151,13.261-28.492,13.261c-6.302,0-12.08-1.182-17.2-3.545S999,459.246,995,453.469v-64.335
	c5-6.388,10.155-11.334,15.888-14.836c5.731-3.5,12.44-5.253,20.055-5.253c5.338,0,10.126,0.92,14.328,2.758
	c4.201,1.838,7.755,4.749,10.644,8.73c2.889,3.984,5.103,9.082,6.635,15.296c1.53,6.217,2.299,13.654,2.299,22.321
	C1064.849,434.519,1061.524,447.124,1054.874,455.964z"/>
<path fill="#FFFFFF" d="M1182.391,431.083c-1.97-3.807-4.575-7.024-7.812-9.649c-3.24-2.626-6.916-4.814-11.029-6.565
	c-4.116-1.75-8.336-3.349-12.67-4.793c-4.332-1.443-8.557-2.799-12.67-4.07c-4.114-1.267-7.792-2.734-11.029-4.398
	c-3.237-1.663-5.842-3.632-7.811-5.909c-1.97-2.275-2.956-5.12-2.956-8.534c0-2.712,0.592-5.229,1.774-7.55
	c1.182-2.317,2.887-4.353,5.12-6.105c2.231-1.749,4.924-3.129,8.073-4.135c3.152-1.005,6.697-1.51,10.636-1.51
	c4.55,0,8.49,0.504,11.818,1.51c3.325,1.006,6.19,2.101,8.599,3.282c2.406,1.182,4.44,2.255,6.105,3.216
	c1.662,0.965,3.152,1.445,4.464,1.445c2.186,0,3.808-0.963,4.857-2.888l5.252-8.535c-5.077-4.812-11.095-8.599-18.053-11.357
	c-6.96-2.757-14.815-4.136-23.568-4.136c-7.529,0-14.224,1.051-20.088,3.152c-5.866,2.101-10.811,4.924-14.837,8.468
	c-4.025,3.545-7.087,7.66-9.19,12.34c1.327,3.239,2.504,6.643,3.501,10.226c2.396,8.607,3.76,18.319,4.065,28.926
	c0.016,0.014,0.032,0.029,0.048,0.043c3.237,2.714,6.937,4.969,11.095,6.761c4.156,1.795,8.402,3.394,12.734,4.792
	c4.334,1.402,8.578,2.736,12.737,4.005c4.156,1.271,7.855,2.758,11.095,4.464c3.238,1.707,5.843,3.764,7.811,6.171
	c1.97,2.408,2.955,5.449,2.955,9.125c0,2.977-0.549,5.777-1.641,8.404c-1.096,2.625-2.78,4.946-5.056,6.958
	c-2.276,2.015-5.12,3.611-8.533,4.793c-3.415,1.181-7.398,1.771-11.948,1.771c-5.34,0-9.783-0.611-13.326-1.838
	c-3.545-1.225-6.565-2.581-9.061-4.07c-2.494-1.487-4.618-2.843-6.368-4.07c-1.75-1.226-3.413-1.839-4.988-1.839
	c-1.577,0-2.846,0.308-3.808,0.919c-0.963,0.613-1.795,1.49-2.494,2.626l-5.516,8.928c5.253,4.727,11.64,8.599,19.169,11.62
	c7.528,3.02,15.931,4.53,25.209,4.53c8.14,0,15.316-1.095,21.532-3.282c6.214-2.187,11.465-5.187,15.756-8.993
	c4.287-3.808,7.527-8.315,9.715-13.524c2.188-5.207,3.282-10.875,3.282-17.003C1185.344,439.465,1184.359,434.891,1182.391,431.083z
	"/>
<path fill="#FFFFFF" d="M956,529H835c-4.273,0-8.38-0.72-12.217-2.026l-4.828-1.256c-9.103-2.368-17.926-5.674-26.332-9.862
	C800.249,530.876,816.437,541,835,541h121V529z"/>
<g>
	<path fill="#FFFFFF" d="M1183,390.944c-2.983,1.542-6.37,2.374-9.997,2.374c-0.667,0-1.335-0.042-2.003-0.104v7.461
		c4.333,1.945,8.36,4.301,12,7.04V390.944z"/>
	<path fill="#FFFFFF" d="M1171,289v50.683c4.25,1.687,8.254,3.709,12,6.04V289c0-27.614-22.386-50-50-50H835
		c-23.501,0-43.206,16.218-48.557,38.07c4.447-2.458,9.045-4.69,13.728-6.629c0.721-0.299,1.455-0.573,2.182-0.86
		C808.991,258.464,821.138,251,835,251h298C1153.953,251,1171,268.047,1171,289z"/>
	<path fill="#FFFFFF" d="M1182.973,487.292c-3.623,3.213-7.728,6-12.265,8.34C1168.414,514.407,1152.384,529,1133,529h-122v12h122
		c27.614,0,50-22.386,50-50v-3.734C1182.991,487.275,1182.982,487.284,1182.973,487.292z"/>
</g>
</svg>
