<?xml version="1.0" encoding="utf-8"?>
<!-- Generator: Adobe Illustrator 16.0.0, SVG Export Plug-In . SVG Version: 6.00 Build 0)  -->
<!DOCTYPE svg PUBLIC "-//W3C//DTD SVG 1.1//EN" "http://www.w3.org/Graphics/SVG/1.1/DTD/svg11.dtd">
<svg version="1.1" id="图层_1" xmlns="http://www.w3.org/2000/svg" xmlns:xlink="http://www.w3.org/1999/xlink" x="0px" y="0px"
	 width="889px" height="548px" viewBox="0 0 889 548" enable-background="new 0 0 889 548" xml:space="preserve">
<rect fill="#202B33" width="889" height="548"/>
<polygon fill="#39464C" points="89.72,420.52 0,452.235 0,547.999 889,547.999 889,425.4 770.675,425.999 641.932,425.999 
	518.247,369.689 388.54,374.5 281.907,415.399 185.244,359.501 "/>
<line fill="none" stroke="#8FB2C3" stroke-width="3" stroke-miterlimit="10" x1="185.244" y1="359.5" x2="281.993" y2="415.5"/>
<line fill="none" stroke="#8FB2C3" stroke-width="3" stroke-miterlimit="10" x1="388.54" y1="374.5" x2="281.993" y2="415.5"/>
<line fill="none" stroke="#8FB2C3" stroke-width="3" stroke-miterlimit="10" x1="388.54" y1="374.5" x2="518.355" y2="369.5"/>
<line fill="none" stroke="#8FB2C3" stroke-width="3" stroke-miterlimit="10" x1="518.355" y1="369.5" x2="642.048" y2="425.5"/>
<line fill="none" stroke="#8FB2C3" stroke-width="3" stroke-miterlimit="10" x1="642" y1="426.5" x2="771" y2="426.5"/>
<g>
	<defs>
		<rect id="SVGID_1_" width="889" height="548"/>
	</defs>
	<clipPath id="SVGID_2_">
		<use xlink:href="#SVGID_1_"  overflow="visible"/>
	</clipPath>
	
		<line clip-path="url(#SVGID_2_)" fill="none" stroke="#8FB2C3" stroke-width="3" stroke-miterlimit="10" x1="771" y1="426.5" x2="897" y2="426.5"/>
</g>
<line fill="none" stroke="#8FB2C3" stroke-width="3" stroke-miterlimit="10" x1="89.72" y1="420.5" x2="188.286" y2="358.577"/>
<g>
	<defs>
		<rect id="SVGID_3_" width="889" height="548"/>
	</defs>
	<clipPath id="SVGID_4_">
		<use xlink:href="#SVGID_3_"  overflow="visible"/>
	</clipPath>
	
		<line clip-path="url(#SVGID_4_)" fill="none" stroke="#8FB2C3" stroke-width="3" stroke-miterlimit="10" x1="-7.28" y1="454.5" x2="89.72" y2="420.5"/>
	<path clip-path="url(#SVGID_4_)" fill="#FFFFFF" d="M51.406,32.5c0,3.702-3.001,6.703-6.703,6.703C41.001,39.203,38,36.202,38,32.5
		s3.001-6.703,6.703-6.703C48.405,25.797,51.406,28.798,51.406,32.5"/>
	<path clip-path="url(#SVGID_4_)" fill="#FFFFFF" d="M78.219,32.5c0,3.702-3.001,6.703-6.703,6.703
		c-3.702,0-6.703-3.001-6.703-6.703s3.001-6.703,6.703-6.703C75.218,25.797,78.219,28.798,78.219,32.5"/>
	<path clip-path="url(#SVGID_4_)" fill="#FFFFFF" d="M105.031,32.5c0,3.702-3.001,6.703-6.703,6.703
		c-3.702,0-6.703-3.001-6.703-6.703s3.001-6.703,6.703-6.703C102.03,25.797,105.031,28.798,105.031,32.5"/>
	<path clip-path="url(#SVGID_4_)" fill="#CD1C00" d="M319.33,198.443c0,54.922-44.522,99.443-99.443,99.443
		s-99.443-44.521-99.443-99.443c0-54.92,44.522-99.443,99.443-99.443S319.33,143.523,319.33,198.443"/>
	<path clip-path="url(#SVGID_4_)" fill="#E8482F" d="M308.192,198.443c0,48.77-39.536,88.305-88.306,88.305
		c-48.769,0-88.306-39.535-88.306-88.305c0-48.769,39.537-88.306,88.306-88.306C268.656,110.137,308.192,149.674,308.192,198.443"/>
	<path clip-path="url(#SVGID_4_)" fill="#202B33" d="M297.056,198.443c0,42.619-34.55,77.168-77.169,77.168
		c-42.618,0-77.167-34.549-77.167-77.168s34.549-77.168,77.167-77.168C262.506,121.275,297.056,155.824,297.056,198.443"/>
</g>
<text transform="matrix(1 0 0 1 190.4521 215.5957)" fill="#E8482F" font-family="'Raleway'" font-size="57.2794">32</text>
<g>
	<defs>
		<rect id="SVGID_5_" width="889" height="548"/>
	</defs>
	<clipPath id="SVGID_6_">
		<use xlink:href="#SVGID_5_"  overflow="visible"/>
	</clipPath>
	<path clip-path="url(#SVGID_6_)" fill="#F2F2F2" d="M191.214,359.5c0,2.692-2.673,4.875-5.97,4.875c-3.298,0-5.97-2.183-5.97-4.875
		s2.672-4.875,5.97-4.875C188.542,354.625,191.214,356.808,191.214,359.5"/>
	<path clip-path="url(#SVGID_6_)" fill="#F2F2F2" d="M95.69,420.5c0,2.692-2.673,4.875-5.97,4.875c-3.298,0-5.971-2.183-5.971-4.875
		s2.673-4.875,5.971-4.875C93.017,415.625,95.69,417.808,95.69,420.5"/>
	<path clip-path="url(#SVGID_6_)" fill="#F2F2F2" d="M287.964,415.5c0,2.692-2.673,4.875-5.971,4.875
		c-3.297,0-5.97-2.183-5.97-4.875s2.673-4.875,5.97-4.875C285.291,410.625,287.964,412.808,287.964,415.5"/>
	<path clip-path="url(#SVGID_6_)" fill="#F2F2F2" d="M394.51,374.5c0,2.692-2.673,4.875-5.97,4.875c-3.298,0-5.97-2.183-5.97-4.875
		s2.672-4.875,5.97-4.875C391.837,369.625,394.51,371.808,394.51,374.5"/>
	<path clip-path="url(#SVGID_6_)" fill="#F2F2F2" d="M524.326,369.5c0,2.692-2.674,4.875-5.971,4.875s-5.971-2.183-5.971-4.875
		s2.674-4.875,5.971-4.875S524.326,366.808,524.326,369.5"/>
	<path clip-path="url(#SVGID_6_)" fill="#F2F2F2" d="M648.018,425.5c0,2.692-2.673,4.875-5.97,4.875
		c-3.298,0-5.971-2.183-5.971-4.875s2.673-4.875,5.971-4.875C645.345,420.625,648.018,422.808,648.018,425.5"/>
	<path clip-path="url(#SVGID_6_)" fill="#F2F2F2" d="M776.608,425.5c0,2.692-2.673,4.875-5.97,4.875
		c-3.298,0-5.971-2.183-5.971-4.875s2.673-4.875,5.971-4.875C773.936,420.625,776.608,422.808,776.608,425.5"/>
	<path clip-path="url(#SVGID_6_)" fill="#3C5059" d="M509.556,153.554c0,15.218-12.336,27.554-27.554,27.554
		c-15.217,0-27.555-12.336-27.555-27.554c0-15.218,12.338-27.554,27.555-27.554C497.22,126,509.556,138.336,509.556,153.554"/>
	<path clip-path="url(#SVGID_6_)" fill="#3C5059" d="M636.722,153.554c0,15.218-12.337,27.555-27.555,27.555
		c-15.217,0-27.555-12.337-27.555-27.555c0-15.218,12.338-27.554,27.555-27.554C624.385,126,636.722,138.336,636.722,153.554"/>
	<path clip-path="url(#SVGID_6_)" fill="#3C5059" d="M764.821,153.554c0,15.218-12.336,27.555-27.554,27.555
		s-27.555-12.337-27.555-27.555c0-15.218,12.337-27.554,27.555-27.554S764.821,138.336,764.821,153.554"/>
	<path clip-path="url(#SVGID_6_)" fill="#3C5059" d="M509.556,242.383c0,15.218-12.336,27.554-27.554,27.554
		c-15.217,0-27.555-12.336-27.555-27.554c0-15.218,12.338-27.555,27.555-27.555C497.22,214.828,509.556,227.166,509.556,242.383"/>
	<path clip-path="url(#SVGID_6_)" fill="#3C5059" d="M636.722,242.383c0,15.218-12.337,27.554-27.555,27.554
		c-15.217,0-27.555-12.336-27.555-27.554c0-15.218,12.338-27.555,27.555-27.555C624.385,214.828,636.722,227.166,636.722,242.383"/>
	<path clip-path="url(#SVGID_6_)" fill="#3C5059" d="M764.821,242.383c0,15.218-12.336,27.554-27.554,27.554
		s-27.555-12.336-27.555-27.554c0-15.218,12.337-27.555,27.555-27.555S764.821,227.166,764.821,242.383"/>
</g>
</svg>
